<?xml version="1.0" encoding="utf-8"?>
<!-- Generator: Adobe Illustrator 24.1.0, SVG Export Plug-In . SVG Version: 6.00 Build 0)  -->
<svg version="1.1" id="Layer_1" xmlns="http://www.w3.org/2000/svg" xmlns:xlink="http://www.w3.org/1999/xlink" x="0px" y="0px"
	 viewBox="0 0 1294.1 798.2" style="enable-background:new 0 0 1294.1 798.2;" xml:space="preserve">
<style type="text/css">
	.st0{fill:#1B75BC;stroke:#1B75BC;stroke-width:8;stroke-miterlimit:10;}
	.st1{fill:#1B75BC;}
	.st2{font-family:'AvenirNext-Medium';}
	.st3{font-size:219.8035px;}
	.st4{font-size:66.0228px;}
</style>
<path class="st0" d="M193.2,583.1c-0.6,0-1.1-0.1-1.7-0.4c-2.3-1.1-4.6-3.4-6.9-6.9c-2.2-3.4-4.8-8.3-7.6-14.6s-6-14.4-9.4-24.2
	c-3.4-9.8-6.8-21.4-10.1-34.4c-3.3-13.1-6.5-27.4-9.5-42.4c-3-15.1-5.9-30.7-8.6-46.3c-2.6-15.5-5.5-30.2-8.4-43.7
	c-2.9-13.3-5-23.5-6.4-30.2c-1.2-5.8-2.6-11.5-4.4-17l-0.1-0.4v-0.5c0-5,0.4-8.1,1.3-9.8c0.5-0.8,1.1-1.3,1.8-1.3
	c1.5,0,3.4,2.2,5.8,7l0.1,0.3l0.1,0.4c0.5,2.4,1.6,4.9,2.8,7.6c1.5,3.2,3,6.5,3.6,10.2c0.4,2.3,0.8,4.9,1.4,8
	c1.1,6,2.4,13.6,3.8,22.7c2.1,13.6,4.4,28.5,7,44.3c2.6,15.6,5.4,31.1,8.4,46c3,14.9,6.2,29,9.6,41.7c0.9,3.6,1.8,7,2.6,10.3
	c2.1,8.6,4,16.1,6.5,22.8c1.1,3,2.1,5.7,3,8.4c1.9,5.6,3.6,10.4,5.7,14.2c1.1,2,2,3.8,2.7,5.4c1.4,2.9,2.5,5.1,3.9,6.5
	c2.9,2.9,3.8,3.1,4,3.1c0.3,0,0.6-0.2,0.9-1.1c0.3-0.8,1-3.2,2.4-9.8c1.2-5.5,2.4-13,3.6-22.2c1.2-9.4,2.3-19.5,3.3-30
	c1-10.6,1.8-21.3,2.4-31.7c0.7-10.5,1.2-20.8,1.6-30.6c0.4-10.3,0.8-20,1.1-28.8c0.3-8.6,0.5-17.3,0.7-25.7
	c0.1-7.7,0.2-14.5,0.3-20.2c0-0.6,0-1.1,0-1.5v-0.3c-1.4-6.4-1.4-10.9,0-13.6c0.3-0.6,0.6-1.1,1-1.4c0.7-2.6,1.9-3,2.6-3
	c0.8,0,1.6,0.5,2.6,1.4c2.5,2.5,3.8,7.3,3.9,14.4c0.1,6.3,0.6,14.5,1.4,24.4c0.9,10,1.8,20,2.9,29.6c1,9.4,2.1,18.7,3.4,29.8
	l0.4,3.5l2.8,24.7c0.9,8.3,1.8,15.9,2.7,22.6c0.2,1.6,0.4,3.2,0.7,4.8c0-0.1,0-0.3,0-0.4c0.8-7.8,1.7-17,2.5-27.2
	c0.9-11.4,1.8-22.1,2.7-32.6c0.9-11.4,1.9-22.1,3-31.7c1-9.6,2.2-18.4,3.4-26.1c1.2-7.8,2.6-14.6,4.1-20.1
	c1.6-5.7,3.4-10.2,5.5-13.2c1.4-2,3-3.1,4.7-3.1c1.1,0,2.2,0.4,3.1,1.2c2.8,2,4.7,6,5.6,12c0.8,5.3,1.7,11.9,2.6,19.5l0.3,2.6
	c0.9,7.2,1.8,14.6,2.7,22.4c1.1,9.2,2.4,18.4,3.8,27.4c1.4,9,3,17.6,4.7,25.4c1.7,7.6,3.9,14.8,6.6,21.5c2.6,6.4,5.4,11,8.4,13.7
	c1.2,1.1,2.7,1.7,4.5,1.7c2.2,0,4.8-0.9,7.7-2.7c5.5-3.4,12.1-11.1,19.6-22.8c7.7-11.9,16.3-27.2,25.6-45.4
	c9.3-18.3,18.6-37.5,27.4-57.3c8.9-19.9,17.6-38.9,25.9-56.5c8.4-17.8,15.4-32.4,20.9-43.5s9.7-19.3,12.6-24.4l0.1-0.1l0.1-0.1
	c3-3.5,3.7-3.8,4.3-3.8c0.5,0,1,0.5,1.2,1.3c0.4,1.4,0.2,2.7-3.3,9.2l-0.1,0.1l-0.1,0.1c-2.9,4-7.1,11.5-12.6,22.2
	c-5.5,10.7-12.5,25-21,42.8c-8.5,17.9-17.2,36.9-25.9,56.4c-8.7,19.6-18,39.1-27.4,57.8c-9.4,18.6-18.1,34.4-25.9,47
	c-7.8,12.6-15.1,21.3-21.5,25.9c-3.5,2.5-6.8,3.8-9.6,3.8c-2.4,0.1-4.7-1-6.8-3c-4-4-7.5-9.7-10.4-17c-2.9-7.3-5.2-15.2-6.9-23.5
	c-1.7-8.4-3.3-17.3-4.7-26.4l-1.5-10c-0.9-5.8-1.8-11.6-2.7-17.4c-1.4-8.9-2.8-17.1-4.2-24.3c-1.4-7-2.8-12.5-4.2-16.4l-0.6-1.7
	c-0.5-1.5-1.1-3.1-1.5-4.1c-0.1,0.1-0.2,0.2-0.4,0.3c-0.3,0.3-1.2,1.6-3,7.5c-1.4,4.6-2.8,10.5-4,17.7s-2.4,15.6-3.5,25.1
	c-1.1,9.4-2.1,19.9-3,31.3c-0.9,11.4-1.7,22.4-2.4,32.6c-0.7,10.5-1.3,19.8-1.6,27.6c-0.4,8.6-0.7,14.4-0.9,18.1
	c-0.3,4.8-1.9,7.7-4.6,8.3c-0.4,0.1-0.8,0.2-1.3,0.2c-2.6,0-3.7-2.4-4.1-4.4c-0.6-2.8-1-6.3-1.2-10.6c-0.2-4.2-0.5-9.5-0.9-15.9
	c-0.5-6.6-1.1-14.2-1.9-22.8c-0.8-8.6-1.8-18.1-3-28.1c-1.2-10.2-2.4-20.3-3.4-29.8c-1-9.6-2.3-19.5-3.8-29.4
	c-0.1-0.9-0.3-1.8-0.4-2.6c0,0.2,0,1.1,0,1.1c-0.3,8.5-0.5,17.2-0.9,25.8c-0.3,8.5-0.7,17.9-1.2,28.9c-0.4,10.3-1,20.6-1.7,30.8
	c-0.7,10.5-1.5,21.3-2.4,32.1c-0.9,10.9-1.9,21.3-2.9,30.8s-2,17.7-2.9,24.3c-1,6.7-2.3,11.9-4.1,15.5
	C196.9,581.5,195.1,583.1,193.2,583.1z"/>
<text transform="matrix(0.9435 0 0 1 430.6548 458.4006)" class="st1 st2 st3">VNEU</text>
<text transform="matrix(0.9334 0 0 1 428.5653 529.962)" class="st1 st2 st4">Teknologi Indonesia</text>
</svg>
