<svg id="visual" viewBox="0 0 540 960" width="540" height="960" xmlns="http://www.w3.org/2000/svg" xmlns:xlink="http://www.w3.org/1999/xlink" version="1.1"><rect x="0" y="0" width="540" height="960" fill="#0048ae"></rect><defs><linearGradient id="grad1_0" x1="0%" y1="0%" x2="100%" y2="100%"><stop offset="30%" stop-color="#0048ae" stop-opacity="1"></stop><stop offset="70%" stop-color="#0048ae" stop-opacity="1"></stop></linearGradient></defs><defs><linearGradient id="grad2_0" x1="0%" y1="0%" x2="100%" y2="100%"><stop offset="30%" stop-color="#0048ae" stop-opacity="1"></stop><stop offset="70%" stop-color="#0048ae" stop-opacity="1"></stop></linearGradient></defs><g transform="translate(540, 0)"><path d="M0 540C-17.5 515 -34.9 489.9 -60.9 501.3C-86.8 512.7 -121.2 560.5 -129.2 524.3C-137.2 488.1 -118.8 368 -124.8 329.1C-130.8 290.3 -161.3 332.7 -180.8 344.4C-200.2 356.2 -208.6 337.4 -238 344.8C-267.4 352.2 -317.8 385.9 -328.2 370.5C-338.7 355.1 -309.2 290.8 -267.2 236.7C-225.2 182.7 -170.6 139 -223.9 154.5C-277.1 170.1 -438.2 244.9 -464.9 244C-491.6 243.1 -383.9 166.4 -333.8 126.6C-283.7 86.8 -291.2 83.8 -319.4 78.7C-347.7 73.7 -396.6 66.5 -436.8 53C-477 39.6 -508.5 19.8 -540 0L0 0Z" fill="#202020"></path></g><g transform="translate(0, 960)"><path d="M0 -540C5.8 -413.9 11.6 -287.7 36.8 -302.8C61.9 -317.8 106.4 -474.1 119.4 -484.5C132.4 -494.9 113.9 -359.6 123.8 -326.3C133.6 -293.1 171.7 -361.9 212.8 -405.5C254 -449.1 298.2 -467.5 305.1 -441.9C311.9 -416.4 281.4 -347.1 276.5 -312.1C271.6 -277.2 292.4 -276.7 303.9 -269.2C315.4 -261.8 317.8 -247.3 365.4 -252.2C413 -257.1 505.8 -281.4 478.1 -251C450.5 -220.5 302.3 -135.4 275.8 -104.6C249.4 -73.8 344.7 -97.2 400 -98.6C455.4 -100 470.8 -79.3 487.4 -59.2C504.1 -39.1 522 -19.5 540 0L0 0Z" fill="#202020"></path></g></svg>