<svg id="visual" viewBox="0 0 675 900" width="675" height="900" xmlns="http://www.w3.org/2000/svg" xmlns:xlink="http://www.w3.org/1999/xlink" version="1.1"><rect x="0" y="0" width="675" height="900" fill="#202020"></rect><path d="M0 265L52 187L104 221L156 157L208 229L260 245L312 220L363 185L415 163L467 199L519 192L571 194L623 185L675 228L675 901L623 901L571 901L519 901L467 901L415 901L363 901L312 901L260 901L208 901L156 901L104 901L52 901L0 901Z" fill="#0048ae"></path><path d="M0 325L52 257L104 270L156 278L208 287L260 274L312 357L363 256L415 254L467 258L519 364L571 309L623 296L675 365L675 901L623 901L571 901L519 901L467 901L415 901L363 901L312 901L260 901L208 901L156 901L104 901L52 901L0 901Z" fill="#1d4194"></path><path d="M0 454L52 424L104 391L156 399L208 364L260 366L312 384L363 399L415 383L467 359L519 446L571 431L623 453L675 378L675 901L623 901L571 901L519 901L467 901L415 901L363 901L312 901L260 901L208 901L156 901L104 901L52 901L0 901Z" fill="#263a7b"></path><path d="M0 523L52 536L104 517L156 535L208 468L260 484L312 508L363 467L415 542L467 485L519 542L571 545L623 517L675 544L675 901L623 901L571 901L519 901L467 901L415 901L363 901L312 901L260 901L208 901L156 901L104 901L52 901L0 901Z" fill="#293363"></path><path d="M0 553L52 617L104 616L156 561L208 609L260 634L312 581L363 605L415 636L467 552L519 615L571 565L623 614L675 606L675 901L623 901L571 901L519 901L467 901L415 901L363 901L312 901L260 901L208 901L156 901L104 901L52 901L0 901Z" fill="#292c4c"></path><path d="M0 683L52 706L104 664L156 728L208 672L260 669L312 689L363 671L415 715L467 714L519 710L571 713L623 652L675 680L675 901L623 901L571 901L519 901L467 901L415 901L363 901L312 901L260 901L208 901L156 901L104 901L52 901L0 901Z" fill="#252635"></path><path d="M0 814L52 778L104 776L156 770L208 813L260 795L312 811L363 757L415 772L467 762L519 802L571 755L623 753L675 770L675 901L623 901L571 901L519 901L467 901L415 901L363 901L312 901L260 901L208 901L156 901L104 901L52 901L0 901Z" fill="#202020"></path></svg>