<svg id="visual" viewBox="0 0 900 450" width="900" height="450" xmlns="http://www.w3.org/2000/svg" xmlns:xlink="http://www.w3.org/1999/xlink" version="1.1"><rect x="0" y="0" width="900" height="450" fill="#202020"></rect><path d="M0 362L18.8 350.7C37.7 339.3 75.3 316.7 112.8 309C150.3 301.3 187.7 308.7 225.2 320.7C262.7 332.7 300.3 349.3 337.8 343.3C375.3 337.3 412.7 308.7 450.2 298.8C487.7 289 525.3 298 562.8 312.7C600.3 327.3 637.7 347.7 675.2 345.8C712.7 344 750.3 320 787.8 308.5C825.3 297 862.7 298 881.3 298.5L900 299L900 0L881.3 0C862.7 0 825.3 0 787.8 0C750.3 0 712.7 0 675.2 0C637.7 0 600.3 0 562.8 0C525.3 0 487.7 0 450.2 0C412.7 0 375.3 0 337.8 0C300.3 0 262.7 0 225.2 0C187.7 0 150.3 0 112.8 0C75.3 0 37.7 0 18.8 0L0 0Z" fill="#0048ae"></path><path d="M0 280L18.8 271.7C37.7 263.3 75.3 246.7 112.8 245C150.3 243.3 187.7 256.7 225.2 257C262.7 257.3 300.3 244.7 337.8 246C375.3 247.3 412.7 262.7 450.2 262.2C487.7 261.7 525.3 245.3 562.8 247.3C600.3 249.3 637.7 269.7 675.2 282.3C712.7 295 750.3 300 787.8 289.8C825.3 279.7 862.7 254.3 881.3 241.7L900 229L900 0L881.3 0C862.7 0 825.3 0 787.8 0C750.3 0 712.7 0 675.2 0C637.7 0 600.3 0 562.8 0C525.3 0 487.7 0 450.2 0C412.7 0 375.3 0 337.8 0C300.3 0 262.7 0 225.2 0C187.7 0 150.3 0 112.8 0C75.3 0 37.7 0 18.8 0L0 0Z" fill="#1557be"></path><path d="M0 244L18.8 231.5C37.7 219 75.3 194 112.8 186C150.3 178 187.7 187 225.2 190.7C262.7 194.3 300.3 192.7 337.8 199.8C375.3 207 412.7 223 450.2 233.5C487.7 244 525.3 249 562.8 238.8C600.3 228.7 637.7 203.3 675.2 202C712.7 200.7 750.3 223.3 787.8 224.3C825.3 225.3 862.7 204.7 881.3 194.3L900 184L900 0L881.3 0C862.7 0 825.3 0 787.8 0C750.3 0 712.7 0 675.2 0C637.7 0 600.3 0 562.8 0C525.3 0 487.7 0 450.2 0C412.7 0 375.3 0 337.8 0C300.3 0 262.7 0 225.2 0C187.7 0 150.3 0 112.8 0C75.3 0 37.7 0 18.8 0L0 0Z" fill="#2465ce"></path><path d="M0 179L18.8 170C37.7 161 75.3 143 112.8 146.7C150.3 150.3 187.7 175.7 225.2 186.8C262.7 198 300.3 195 337.8 185.7C375.3 176.3 412.7 160.7 450.2 157.3C487.7 154 525.3 163 562.8 170.3C600.3 177.7 637.7 183.3 675.2 183.2C712.7 183 750.3 177 787.8 178.2C825.3 179.3 862.7 187.7 881.3 191.8L900 196L900 0L881.3 0C862.7 0 825.3 0 787.8 0C750.3 0 712.7 0 675.2 0C637.7 0 600.3 0 562.8 0C525.3 0 487.7 0 450.2 0C412.7 0 375.3 0 337.8 0C300.3 0 262.7 0 225.2 0C187.7 0 150.3 0 112.8 0C75.3 0 37.7 0 18.8 0L0 0Z" fill="#3074de"></path><path d="M0 74L18.8 84C37.7 94 75.3 114 112.8 115.3C150.3 116.7 187.7 99.3 225.2 88.8C262.7 78.3 300.3 74.7 337.8 84.7C375.3 94.7 412.7 118.3 450.2 122.3C487.7 126.3 525.3 110.7 562.8 102.7C600.3 94.7 637.7 94.3 675.2 98.5C712.7 102.7 750.3 111.3 787.8 119.2C825.3 127 862.7 134 881.3 137.5L900 141L900 0L881.3 0C862.7 0 825.3 0 787.8 0C750.3 0 712.7 0 675.2 0C637.7 0 600.3 0 562.8 0C525.3 0 487.7 0 450.2 0C412.7 0 375.3 0 337.8 0C300.3 0 262.7 0 225.2 0C187.7 0 150.3 0 112.8 0C75.3 0 37.7 0 18.8 0L0 0Z" fill="#3b84ef"></path><path d="M0 85L18.8 77.7C37.7 70.3 75.3 55.7 112.8 49.2C150.3 42.7 187.7 44.3 225.2 51.8C262.7 59.3 300.3 72.7 337.8 75C375.3 77.3 412.7 68.7 450.2 59C487.7 49.3 525.3 38.7 562.8 43.8C600.3 49 637.7 70 675.2 79.5C712.7 89 750.3 87 787.8 78.3C825.3 69.7 862.7 54.3 881.3 46.7L900 39L900 0L881.3 0C862.7 0 825.3 0 787.8 0C750.3 0 712.7 0 675.2 0C637.7 0 600.3 0 562.8 0C525.3 0 487.7 0 450.2 0C412.7 0 375.3 0 337.8 0C300.3 0 262.7 0 225.2 0C187.7 0 150.3 0 112.8 0C75.3 0 37.7 0 18.8 0L0 0Z" fill="#4693ff"></path></svg>