<svg id="visual" viewBox="0 0 675 900" width="675" height="900" xmlns="http://www.w3.org/2000/svg" xmlns:xlink="http://www.w3.org/1999/xlink" version="1.1"><g stroke-width="1" stroke-linejoin="bevel"><path d="M341.5 482.9L432.9 415.1L331.5 393.1Z" fill="#293363" stroke="#293363"></path><path d="M341.5 482.9L431.9 506.9L432.9 415.1Z" fill="#253b80" stroke="#253b80"></path><path d="M432.9 415.1L353.5 339.3L331.5 393.1Z" fill="#16449e" stroke="#16449e"></path><path d="M432.9 415.1L404.9 320.3L353.5 339.3Z" fill="#1f3f8f" stroke="#1f3f8f"></path><path d="M496.3 489.9L499.3 412.1L432.9 415.1Z" fill="#1f3f8f" stroke="#1f3f8f"></path><path d="M432.9 415.1L509.3 311.3L404.9 320.3Z" fill="#292f55" stroke="#292f55"></path><path d="M242.1 310.3L247.1 409.1L331.5 393.1Z" fill="#283771" stroke="#283771"></path><path d="M331.5 393.1L247.1 409.1L341.5 482.9Z" fill="#0048ae" stroke="#0048ae"></path><path d="M431.9 506.9L496.3 489.9L432.9 415.1Z" fill="#26273a" stroke="#26273a"></path><path d="M247.1 409.1L245.1 481.9L341.5 482.9Z" fill="#282b47" stroke="#282b47"></path><path d="M322.5 577.7L437.9 571.7L431.9 506.9Z" fill="#283771" stroke="#283771"></path><path d="M322.5 577.7L431.9 506.9L341.5 482.9Z" fill="#26273a" stroke="#26273a"></path><path d="M431.9 506.9L437.9 571.7L496.3 489.9Z" fill="#293363" stroke="#293363"></path><path d="M245.1 481.9L322.5 577.7L341.5 482.9Z" fill="#293363" stroke="#293363"></path><path d="M578.6 321.3L509.3 311.3L499.3 412.1Z" fill="#16449e" stroke="#16449e"></path><path d="M499.3 412.1L509.3 311.3L432.9 415.1Z" fill="#1f3f8f" stroke="#1f3f8f"></path><path d="M324.5 258.5L242.1 310.3L353.5 339.3Z" fill="#283771" stroke="#283771"></path><path d="M353.5 339.3L242.1 310.3L331.5 393.1Z" fill="#202020" stroke="#202020"></path><path d="M247.1 409.1L172.8 411.1L245.1 481.9Z" fill="#23242d" stroke="#23242d"></path><path d="M324.5 258.5L353.5 339.3L404.9 320.3Z" fill="#282b47" stroke="#282b47"></path><path d="M424.9 228.5L324.5 258.5L404.9 320.3Z" fill="#1f3f8f" stroke="#1f3f8f"></path><path d="M245.1 481.9L256.1 576.7L322.5 577.7Z" fill="#253b80" stroke="#253b80"></path><path d="M437.9 571.7L511.3 570.7L496.3 489.9Z" fill="#0048ae" stroke="#0048ae"></path><path d="M496.3 489.9L575.6 424.1L499.3 412.1Z" fill="#23242d" stroke="#23242d"></path><path d="M521.3 653.5L511.3 570.7L437.9 571.7Z" fill="#253b80" stroke="#253b80"></path><path d="M581.6 490.9L575.6 424.1L496.3 489.9Z" fill="#26273a" stroke="#26273a"></path><path d="M242.1 310.3L172.8 411.1L247.1 409.1Z" fill="#23242d" stroke="#23242d"></path><path d="M245.1 481.9L168.8 564.7L256.1 576.7Z" fill="#0048ae" stroke="#0048ae"></path><path d="M324.5 258.5L263.1 259.5L242.1 310.3Z" fill="#202020" stroke="#202020"></path><path d="M242.1 310.3L151.8 329.3L172.8 411.1Z" fill="#283771" stroke="#283771"></path><path d="M509.3 311.3L424.9 228.5L404.9 320.3Z" fill="#23242d" stroke="#23242d"></path><path d="M324.5 258.5L269.1 162.6L263.1 259.5Z" fill="#292f55" stroke="#292f55"></path><path d="M511.3 570.7L581.6 490.9L496.3 489.9Z" fill="#23242d" stroke="#23242d"></path><path d="M509.3 311.3L514.3 258.5L424.9 228.5Z" fill="#282b47" stroke="#282b47"></path><path d="M578.6 321.3L514.3 258.5L509.3 311.3Z" fill="#202020" stroke="#202020"></path><path d="M172.8 411.1L158.8 490.9L245.1 481.9Z" fill="#292f55" stroke="#292f55"></path><path d="M675 415.1L578.6 321.3L575.6 424.1Z" fill="#1f3f8f" stroke="#1f3f8f"></path><path d="M575.6 424.1L578.6 321.3L499.3 412.1Z" fill="#282b47" stroke="#282b47"></path><path d="M174.8 654.5L269.1 643.5L256.1 576.7Z" fill="#0048ae" stroke="#0048ae"></path><path d="M256.1 576.7L269.1 643.5L322.5 577.7Z" fill="#0048ae" stroke="#0048ae"></path><path d="M322.5 577.7L423.9 666.5L437.9 571.7Z" fill="#282b47" stroke="#282b47"></path><path d="M269.1 643.5L338.5 666.5L322.5 577.7Z" fill="#292f55" stroke="#292f55"></path><path d="M338.5 666.5L423.9 666.5L322.5 577.7Z" fill="#202020" stroke="#202020"></path><path d="M511.3 570.7L578.6 567.7L581.6 490.9Z" fill="#253b80" stroke="#253b80"></path><path d="M576.6 644.5L578.6 567.7L511.3 570.7Z" fill="#292f55" stroke="#292f55"></path><path d="M158.8 490.9L168.8 564.7L245.1 481.9Z" fill="#16449e" stroke="#16449e"></path><path d="M162.8 237.5L151.8 329.3L242.1 310.3Z" fill="#293363" stroke="#293363"></path><path d="M172.8 411.1L101.4 406.1L158.8 490.9Z" fill="#23242d" stroke="#23242d"></path><path d="M432.9 154.6L345.5 178.6L424.9 228.5Z" fill="#23242d" stroke="#23242d"></path><path d="M424.9 228.5L345.5 178.6L324.5 258.5Z" fill="#283771" stroke="#283771"></path><path d="M263.1 259.5L162.8 237.5L242.1 310.3Z" fill="#283771" stroke="#283771"></path><path d="M423.9 666.5L521.3 653.5L437.9 571.7Z" fill="#253b80" stroke="#253b80"></path><path d="M675 314.3L586.6 261.5L578.6 321.3Z" fill="#282b47" stroke="#282b47"></path><path d="M578.6 321.3L586.6 261.5L514.3 258.5Z" fill="#23242d" stroke="#23242d"></path><path d="M489.3 171.6L432.9 154.6L424.9 228.5Z" fill="#292f55" stroke="#292f55"></path><path d="M151.8 329.3L101.4 406.1L172.8 411.1Z" fill="#292f55" stroke="#292f55"></path><path d="M158.8 490.9L80.4 499.9L168.8 564.7Z" fill="#253b80" stroke="#253b80"></path><path d="M489.3 171.6L424.9 228.5L514.3 258.5Z" fill="#16449e" stroke="#16449e"></path><path d="M586.6 261.5L489.3 171.6L514.3 258.5Z" fill="#253b80" stroke="#253b80"></path><path d="M269.1 162.6L162.8 237.5L263.1 259.5Z" fill="#253b80" stroke="#253b80"></path><path d="M151.8 329.3L71.4 321.3L101.4 406.1Z" fill="#293363" stroke="#293363"></path><path d="M345.5 178.6L269.1 162.6L324.5 258.5Z" fill="#1f3f8f" stroke="#1f3f8f"></path><path d="M331.5 94.8L269.1 162.6L345.5 178.6Z" fill="#293363" stroke="#293363"></path><path d="M675 507.9L675 415.1L581.6 490.9Z" fill="#283771" stroke="#283771"></path><path d="M521.3 653.5L576.6 644.5L511.3 570.7Z" fill="#1f3f8f" stroke="#1f3f8f"></path><path d="M259.1 744.4L341.5 724.4L338.5 666.5Z" fill="#16449e" stroke="#16449e"></path><path d="M338.5 666.5L341.5 724.4L423.9 666.5Z" fill="#293363" stroke="#293363"></path><path d="M423.9 666.5L496.3 752.4L521.3 653.5Z" fill="#293363" stroke="#293363"></path><path d="M521.3 653.5L573.6 724.4L576.6 644.5Z" fill="#283771" stroke="#283771"></path><path d="M259.1 744.4L338.5 666.5L269.1 643.5Z" fill="#1f3f8f" stroke="#1f3f8f"></path><path d="M99.4 587.7L174.8 654.5L168.8 564.7Z" fill="#282b47" stroke="#282b47"></path><path d="M168.8 564.7L174.8 654.5L256.1 576.7Z" fill="#0048ae" stroke="#0048ae"></path><path d="M675 507.9L581.6 490.9L578.6 567.7Z" fill="#23242d" stroke="#23242d"></path><path d="M581.6 490.9L675 415.1L575.6 424.1Z" fill="#0048ae" stroke="#0048ae"></path><path d="M101.4 406.1L80.4 499.9L158.8 490.9Z" fill="#0048ae" stroke="#0048ae"></path><path d="M675 571.7L675 507.9L578.6 567.7Z" fill="#293363" stroke="#293363"></path><path d="M341.5 724.4L429.9 744.4L423.9 666.5Z" fill="#253b80" stroke="#253b80"></path><path d="M80.4 499.9L99.4 587.7L168.8 564.7Z" fill="#0048ae" stroke="#0048ae"></path><path d="M675 415.1L675 314.3L578.6 321.3Z" fill="#202020" stroke="#202020"></path><path d="M496.3 75.8L432.9 154.6L489.3 171.6Z" fill="#293363" stroke="#293363"></path><path d="M70.4 260.5L71.4 321.3L151.8 329.3Z" fill="#253b80" stroke="#253b80"></path><path d="M101.4 406.1L0 408.1L80.4 499.9Z" fill="#1f3f8f" stroke="#1f3f8f"></path><path d="M576.6 644.5L675 571.7L578.6 567.7Z" fill="#283771" stroke="#283771"></path><path d="M178.8 743.4L259.1 744.4L174.8 654.5Z" fill="#282b47" stroke="#282b47"></path><path d="M174.8 654.5L259.1 744.4L269.1 643.5Z" fill="#23242d" stroke="#23242d"></path><path d="M341.5 724.4L322.5 800.2L429.9 744.4Z" fill="#282b47" stroke="#282b47"></path><path d="M490.3 825.2L496.3 752.4L429.9 744.4Z" fill="#1f3f8f" stroke="#1f3f8f"></path><path d="M429.9 744.4L496.3 752.4L423.9 666.5Z" fill="#202020" stroke="#202020"></path><path d="M576.6 644.5L675 665.5L675 571.7Z" fill="#282b47" stroke="#282b47"></path><path d="M434.9 86.8L331.5 94.8L432.9 154.6Z" fill="#292f55" stroke="#292f55"></path><path d="M432.9 154.6L331.5 94.8L345.5 178.6Z" fill="#282b47" stroke="#282b47"></path><path d="M269.1 162.6L171.8 156.6L162.8 237.5Z" fill="#16449e" stroke="#16449e"></path><path d="M256.1 70.8L171.8 156.6L269.1 162.6Z" fill="#202020" stroke="#202020"></path><path d="M162.8 237.5L70.4 260.5L151.8 329.3Z" fill="#283771" stroke="#283771"></path><path d="M70.4 147.6L70.4 260.5L162.8 237.5Z" fill="#23242d" stroke="#23242d"></path><path d="M496.3 752.4L573.6 724.4L521.3 653.5Z" fill="#202020" stroke="#202020"></path><path d="M603.6 149.6L489.3 171.6L586.6 261.5Z" fill="#1f3f8f" stroke="#1f3f8f"></path><path d="M496.3 75.8L434.9 86.8L432.9 154.6Z" fill="#293363" stroke="#293363"></path><path d="M675 314.3L675 237.5L586.6 261.5Z" fill="#293363" stroke="#293363"></path><path d="M675 237.5L603.6 149.6L586.6 261.5Z" fill="#293363" stroke="#293363"></path><path d="M87.4 726.4L178.8 743.4L174.8 654.5Z" fill="#253b80" stroke="#253b80"></path><path d="M259.1 744.4L322.5 800.2L341.5 724.4Z" fill="#292f55" stroke="#292f55"></path><path d="M249.1 833.2L322.5 800.2L259.1 744.4Z" fill="#23242d" stroke="#23242d"></path><path d="M99.4 587.7L74.4 652.5L174.8 654.5Z" fill="#202020" stroke="#202020"></path><path d="M0 576.7L74.4 652.5L99.4 587.7Z" fill="#293363" stroke="#293363"></path><path d="M0 576.7L99.4 587.7L80.4 499.9Z" fill="#282b47" stroke="#282b47"></path><path d="M0 408.1L101.4 406.1L71.4 321.3Z" fill="#23242d" stroke="#23242d"></path><path d="M0 310.3L0 408.1L71.4 321.3Z" fill="#0048ae" stroke="#0048ae"></path><path d="M586.6 85.8L496.3 75.8L489.3 171.6Z" fill="#293363" stroke="#293363"></path><path d="M347.5 0L256.1 70.8L331.5 94.8Z" fill="#293363" stroke="#293363"></path><path d="M573.6 724.4L675 665.5L576.6 644.5Z" fill="#293363" stroke="#293363"></path><path d="M0 408.1L0 498.9L80.4 499.9Z" fill="#26273a" stroke="#26273a"></path><path d="M347.5 0L331.5 94.8L434.9 86.8Z" fill="#26273a" stroke="#26273a"></path><path d="M331.5 94.8L256.1 70.8L269.1 162.6Z" fill="#293363" stroke="#293363"></path><path d="M70.4 260.5L0 310.3L71.4 321.3Z" fill="#16449e" stroke="#16449e"></path><path d="M0 237.5L0 310.3L70.4 260.5Z" fill="#202020" stroke="#202020"></path><path d="M70.4 147.6L162.8 237.5L171.8 156.6Z" fill="#282b47" stroke="#282b47"></path><path d="M496.3 752.4L600.6 819.2L573.6 724.4Z" fill="#202020" stroke="#202020"></path><path d="M573.6 724.4L675 744.4L675 665.5Z" fill="#26273a" stroke="#26273a"></path><path d="M322.5 800.2L421.9 828.2L429.9 744.4Z" fill="#293363" stroke="#293363"></path><path d="M0 498.9L0 576.7L80.4 499.9Z" fill="#26273a" stroke="#26273a"></path><path d="M675 237.5L675 158.6L603.6 149.6Z" fill="#26273a" stroke="#26273a"></path><path d="M603.6 149.6L586.6 85.8L489.3 171.6Z" fill="#292f55" stroke="#292f55"></path><path d="M675 94.8L586.6 85.8L603.6 149.6Z" fill="#23242d" stroke="#23242d"></path><path d="M421.9 828.2L490.3 825.2L429.9 744.4Z" fill="#282b47" stroke="#282b47"></path><path d="M0 664.5L87.4 726.4L74.4 652.5Z" fill="#0048ae" stroke="#0048ae"></path><path d="M74.4 652.5L87.4 726.4L174.8 654.5Z" fill="#16449e" stroke="#16449e"></path><path d="M176.8 820.2L249.1 833.2L259.1 744.4Z" fill="#292f55" stroke="#292f55"></path><path d="M256.1 70.8L159.8 76.8L171.8 156.6Z" fill="#0048ae" stroke="#0048ae"></path><path d="M159.8 76.8L70.4 147.6L171.8 156.6Z" fill="#282b47" stroke="#282b47"></path><path d="M176.8 820.2L259.1 744.4L178.8 743.4Z" fill="#293363" stroke="#293363"></path><path d="M322.5 800.2L350.5 900L421.9 828.2Z" fill="#23242d" stroke="#23242d"></path><path d="M70.4 147.6L0 237.5L70.4 260.5Z" fill="#23242d" stroke="#23242d"></path><path d="M600.6 819.2L675 744.4L573.6 724.4Z" fill="#293363" stroke="#293363"></path><path d="M437.9 0L347.5 0L434.9 86.8Z" fill="#23242d" stroke="#23242d"></path><path d="M256.1 70.8L159.8 0L159.8 76.8Z" fill="#253b80" stroke="#253b80"></path><path d="M437.9 0L434.9 86.8L496.3 75.8Z" fill="#293363" stroke="#293363"></path><path d="M90.4 810.2L176.8 820.2L178.8 743.4Z" fill="#26273a" stroke="#26273a"></path><path d="M490.3 0L437.9 0L496.3 75.8Z" fill="#23242d" stroke="#23242d"></path><path d="M0 576.7L0 664.5L74.4 652.5Z" fill="#16449e" stroke="#16449e"></path><path d="M87.4 726.4L90.4 810.2L178.8 743.4Z" fill="#16449e" stroke="#16449e"></path><path d="M490.3 825.2L600.6 819.2L496.3 752.4Z" fill="#1f3f8f" stroke="#1f3f8f"></path><path d="M347.5 0L263.1 0L256.1 70.8Z" fill="#292f55" stroke="#292f55"></path><path d="M585.6 0L496.3 75.8L586.6 85.8Z" fill="#26273a" stroke="#26273a"></path><path d="M585.6 0L490.3 0L496.3 75.8Z" fill="#292f55" stroke="#292f55"></path><path d="M675 158.6L675 94.8L603.6 149.6Z" fill="#282b47" stroke="#282b47"></path><path d="M270.1 900L322.5 800.2L249.1 833.2Z" fill="#16449e" stroke="#16449e"></path><path d="M270.1 900L350.5 900L322.5 800.2Z" fill="#202020" stroke="#202020"></path><path d="M421.9 828.2L495.3 900L490.3 825.2Z" fill="#253b80" stroke="#253b80"></path><path d="M490.3 825.2L579.6 900L600.6 819.2Z" fill="#23242d" stroke="#23242d"></path><path d="M350.5 900L407.9 900L421.9 828.2Z" fill="#23242d" stroke="#23242d"></path><path d="M0 90.8L0 147.6L70.4 147.6Z" fill="#16449e" stroke="#16449e"></path><path d="M70.4 147.6L0 147.6L0 237.5Z" fill="#292f55" stroke="#292f55"></path><path d="M70.4 70.8L70.4 147.6L159.8 76.8Z" fill="#1f3f8f" stroke="#1f3f8f"></path><path d="M0 744.4L90.4 810.2L87.4 726.4Z" fill="#253b80" stroke="#253b80"></path><path d="M171.8 900L270.1 900L249.1 833.2Z" fill="#292f55" stroke="#292f55"></path><path d="M159.8 0L70.4 70.8L159.8 76.8Z" fill="#292f55" stroke="#292f55"></path><path d="M171.8 900L249.1 833.2L176.8 820.2Z" fill="#1f3f8f" stroke="#1f3f8f"></path><path d="M407.9 900L495.3 900L421.9 828.2Z" fill="#282b47" stroke="#282b47"></path><path d="M675 0L585.6 0L586.6 85.8Z" fill="#26273a" stroke="#26273a"></path><path d="M263.1 0L159.8 0L256.1 70.8Z" fill="#292f55" stroke="#292f55"></path><path d="M0 664.5L0 744.4L87.4 726.4Z" fill="#26273a" stroke="#26273a"></path><path d="M675 900L675 819.2L600.6 819.2Z" fill="#283771" stroke="#283771"></path><path d="M600.6 819.2L675 819.2L675 744.4Z" fill="#202020" stroke="#202020"></path><path d="M0 0L0 90.8L70.4 70.8Z" fill="#293363" stroke="#293363"></path><path d="M70.4 70.8L0 90.8L70.4 147.6Z" fill="#16449e" stroke="#16449e"></path><path d="M495.3 900L579.6 900L490.3 825.2Z" fill="#292f55" stroke="#292f55"></path><path d="M72.4 900L171.8 900L90.4 810.2Z" fill="#283771" stroke="#283771"></path><path d="M90.4 810.2L171.8 900L176.8 820.2Z" fill="#16449e" stroke="#16449e"></path><path d="M0 744.4L0 801.2L90.4 810.2Z" fill="#283771" stroke="#283771"></path><path d="M675 94.8L675 0L586.6 85.8Z" fill="#23242d" stroke="#23242d"></path><path d="M159.8 0L70.4 0L70.4 70.8Z" fill="#1f3f8f" stroke="#1f3f8f"></path><path d="M579.6 900L675 900L600.6 819.2Z" fill="#292f55" stroke="#292f55"></path><path d="M0 801.2L72.4 900L90.4 810.2Z" fill="#0048ae" stroke="#0048ae"></path><path d="M70.4 0L0 0L70.4 70.8Z" fill="#202020" stroke="#202020"></path><path d="M0 801.2L0 900L72.4 900Z" fill="#253b80" stroke="#253b80"></path></g></svg>